<svg xmlns="http://www.w3.org/2000/svg" width="30.644" height="30.106" viewBox="0 0 30.644 30.106">
  <g id="Group_12640" data-name="Group 12640" transform="translate(-4553.495 75.74)">
    <g id="Group_12641" data-name="Group 12641">
      <path id="Path_2212" data-name="Path 2212" d="M427.761,429.948l5.476,4.459c.63.513,1.266,1.019,1.888,1.542a3.469,3.469,0,1,1-4.821,4.942c-1.957-2.212-3.9-4.439-5.845-6.659-.129-.147-.265-.289-.421-.458a11.2,11.2,0,0,1-9.2,1.247A10.889,10.889,0,0,1,408.7,430.5a11.24,11.24,0,1,1,19.064-.556Zm-9.766-16.1a10.405,10.405,0,1,0,10.448,10.362A10.4,10.4,0,0,0,417.995,413.846Zm9.6,17.03-2.8,2.485,1.506,1.718c1.567,1.786,3.115,3.588,4.707,5.351a2.612,2.612,0,0,0,3.816.108,2.577,2.577,0,0,0-.044-3.769C432.335,434.7,429.828,432.7,427.595,430.876Z" transform="translate(4147.203 -488.269)" fill="#dd272d" stroke="#dd272d" stroke-width="1"/>
    </g>
    <path id="Path_2216" data-name="Path 2216" d="M443.518,457.241a7.8,7.8,0,0,1,.033-15.6,7.8,7.8,0,0,1-.033,15.6Z" transform="translate(4121.69 -513.47)" fill="#ffd8b3"/>
  </g>
</svg>
