<svg xmlns="http://www.w3.org/2000/svg" width="32.865" height="29.297" viewBox="0 0 32.865 29.297">
  <g id="Group_20457" data-name="Group 20457" transform="translate(0 -8.567)">
    <path id="Path_2087" data-name="Path 2087" d="M14.275,395.129a1.974,1.974,0,0,0-1.59-3.142H3.1a1.972,1.972,0,0,0-1.589,3.141A2.821,2.821,0,0,0,0,397.625v.564a.564.564,0,0,0,.564.564H15.221a.564.564,0,0,0,.564-.564v-.564A2.821,2.821,0,0,0,14.275,395.129ZM2.5,393.362a.84.84,0,0,1,.6-.248h9.584a.846.846,0,1,1,0,1.691H3.1a.846.846,0,0,1-.6-1.444Zm-1.375,4.263a1.693,1.693,0,0,1,1.691-1.691H12.966a1.693,1.693,0,0,1,1.691,1.691Z" transform="translate(0 -360.888)" fill="#dd272d"/>
    <g id="Group_2263" data-name="Group 2263" transform="translate(-1203.786 -1718.433)">
      <path id="Path_2089" data-name="Path 2089" d="M1056.885,1769.617l1.545-.281,6.637-6.5v-1.826s.808-.773.983-.878a9.19,9.19,0,0,1,1.335-.281l5.794,5.689-.176,2.072-1.756.421-.7.316-.632.632.632,1.37.211,1.545c.053.386-.386,0-.386,0l5.584,5.654,6.708,5.408.843,2.072-.843,1.44-1.4.913-.176.422-1.826-.176-11.8-13.029-.6.351-.632.176-1.159-.983-.492.176-.913,1.019-.632,2.212-.7.316-1.615-.562-4.811-4.846-.737-.913.386-1.019Z" transform="translate(152.833 -32.475)" fill="#ffd8b3"/>
      <path id="Path_2090" data-name="Path 2090" d="M28.36,23.686a3.55,3.55,0,0,0-.679-.78l-2.634-2.3a.56.56,0,0,0-.224-.2L23.23,19.024l-7.374-6.432a1.688,1.688,0,0,0-.5-2.693l.682-.682a2.256,2.256,0,0,0,2.177-.583,2.255,2.255,0,0,0,0-3.189L13.437.662A2.254,2.254,0,0,0,9.665,2.839L2.858,9.645a2.269,2.269,0,0,0-.584-.076A2.255,2.255,0,0,0,.68,13.418L5.464,18.2a2.254,2.254,0,0,0,3.772-2.177l.681-.681a1.692,1.692,0,0,0,2.694.494l7.854,9.023a.566.566,0,0,0,.076.1l.031.028,2.34,2.689c.058.069.12.136.185.2a3.353,3.353,0,0,0,2.383.991,3.461,3.461,0,0,0,.475-.033,3.411,3.411,0,0,0,2.517-1.743A3.336,3.336,0,0,0,28.36,23.686ZM11.045,1.459a1.127,1.127,0,0,1,1.595,0l4.784,4.783a1.127,1.127,0,0,1-1.594,1.595L11.045,3.053h0A1.128,1.128,0,0,1,11.045,1.459ZM7.856,17.4a1.129,1.129,0,0,1-1.595,0L1.478,12.621a1.127,1.127,0,0,1,1.594-1.595L7.856,15.81A1.128,1.128,0,0,1,7.856,17.4Zm2.374-3.968L8.653,15.013,3.869,10.229,10.247,3.85l4.784,4.784-1.579,1.579-.016.015-3.187,3.188Zm2.013,1.176,0,0-.4.4a.564.564,0,0,1-.8-.79l3.2-3.2a.564.564,0,0,1,.956.4.559.559,0,0,1-.165.4l-.395.395-.008.008Zm1.167.427,1.648-1.648,6.976,6.085-2.546,2.546Zm6.82,7.836,2.655-2.655.852.743-2.765,2.765Zm7.258,3.665A2.293,2.293,0,0,1,25.8,27.716a2.24,2.24,0,0,1-1.906-.639c-.043-.043-.085-.088-.124-.134l-.005-.006L21.714,24.58l2.875-2.875,2.354,2.053.005,0a2.427,2.427,0,0,1,.465.535A2.226,2.226,0,0,1,27.488,26.54Z" transform="translate(1207.766 1726.999)" fill="#dd272d"/>
    </g>
  </g>
</svg>
