<svg xmlns="http://www.w3.org/2000/svg" width="26.049" height="29.597" viewBox="0 0 26.049 29.597">
  <g id="Group_12646" data-name="Group 12646" transform="translate(-4784.877 106)">
    <g id="Group_12642" data-name="Group 12642">
      <path id="Path_2217" data-name="Path 2217" d="M1461.9,376.642a3.017,3.017,0,0,1,1.157,2.418,3.562,3.562,0,0,1-1.409,2.343c.608.576,1.193,1.1,1.749,1.661a2.6,2.6,0,1,1-3.684,3.665q-1.847-1.831-3.675-3.681a2.975,2.975,0,0,1-.342-.537l-.268.011a4.991,4.991,0,0,1-.52.693,2.525,2.525,0,0,1-3.508.082c-.937-.858-1.839-1.759-2.7-2.7a2.542,2.542,0,0,1,.167-3.595c1.474-1.5,2.972-2.967,4.45-4.459a17.8,17.8,0,0,0,4.865-8.89,1.422,1.422,0,0,0-.085-.809,2.628,2.628,0,0,1,.867-3.239,2.569,2.569,0,0,1,3.291.254q4.964,4.926,9.889,9.891a2.537,2.537,0,0,1,.245,3.289,2.616,2.616,0,0,1-3.19.872,1.231,1.231,0,0,0-.65-.145A17.737,17.737,0,0,0,1461.9,376.642Zm5.262-4.345-7.458-7.456a19.854,19.854,0,0,1-4.072,7.772l3.755,3.769A19.911,19.911,0,0,1,1467.16,372.3Zm-9.291,5.488-3.613-3.713c-1.376,1.375-2.771,2.759-4.153,4.156a.845.845,0,0,0-.053,1.285q1.2,1.249,2.456,2.45a.8.8,0,0,0,1.195,0C1455.126,380.557,1456.531,379.131,1457.87,377.785Zm2.544-17.02a3.361,3.361,0,0,0-.716.616.792.792,0,0,0,.226,1.036q4.818,4.817,9.637,9.632a.873.873,0,1,0,1.205-1.234q-4.792-4.8-9.6-9.591A4.158,4.158,0,0,0,1460.414,360.765Zm-3.623,20.59c1.373,1.372,2.73,2.732,4.091,4.089.524.522,1.007.588,1.4.2.415-.4.348-.892-.206-1.447q-1.855-1.859-3.714-3.714c-.115-.115-.246-.216-.366-.32Zm3.677-1.294c1.146-.934,1.152-1.436-.018-2.3l-1.216,1.136Z" transform="translate(3336.842 -464.036)" fill="#dd272d"/>
      <path id="Path_2218" data-name="Path 2218" d="M1629.611,367.98c-.188-.15-.522-.289-.614-.523a1.055,1.055,0,0,1,.058-.9,22.282,22.282,0,0,1,1.9-1.923.755.755,0,0,1,1.055.036.728.728,0,0,1,.194,1.032c-.653.748-1.391,1.423-2.106,2.115C1630.016,367.9,1629.855,367.9,1629.611,367.98Z" transform="translate(3176.869 -468.73)" fill="#dd272d"/>
      <path id="Path_2219" data-name="Path 2219" d="M1598.429,351.377c0-.307-.022-.617,0-.922a.791.791,0,0,1,.786-.774.742.742,0,0,1,.874.659,12.156,12.156,0,0,1,0,2.123.743.743,0,0,1-.87.664.789.789,0,0,1-.789-.77C1598.406,352.033,1598.429,351.7,1598.429,351.377Z" transform="translate(3203.847 -455.678)" fill="#dd272d"/>
      <path id="Path_2220" data-name="Path 2220" d="M1645.116,411.245c-.269,0-.539.013-.807,0a.857.857,0,0,1-.868-.882.839.839,0,0,1,.846-.843c.576-.023,1.154-.022,1.73,0a.859.859,0,0,1,.876.879.878.878,0,0,1-.912.848C1645.693,411.256,1645.4,411.245,1645.116,411.245Z" transform="translate(3164.033 -508.582)" fill="#dd272d"/>
    </g>
    <g id="Group_12645" data-name="Group 12645">
      <path id="Path_2224" data-name="Path 2224" d="M1523.757,542.233l1.21-1.189c.12.1.25.2.366.32q1.859,1.855,3.714,3.714c.554.556.621,1.044.206,1.447-.4.385-.88.319-1.4-.2C1526.487,544.965,1525.129,543.605,1523.757,542.233Z" transform="translate(3269.876 -624.914)" fill="#ffd8b3"/>
      <path id="Path_2225" data-name="Path 2225" d="M1546.118,522.509l-1.234-1.169,1.216-1.136C1547.27,521.073,1547.263,521.575,1546.118,522.509Z" transform="translate(3251.192 -606.484)" fill="#ffd8b3"/>
      <g id="Group_12644" data-name="Group 12644">
        <path id="Path_2221" data-name="Path 2221" d="M1525.253,415.979a19.911,19.911,0,0,0-7.774,4.085l-3.755-3.769a19.852,19.852,0,0,0,4.071-7.772Z" transform="translate(3278.749 -507.718)" fill="#ffd8b3"/>
        <path id="Path_2223" data-name="Path 2223" d="M1548.738,373.276a4.157,4.157,0,0,1,.756.46q4.808,4.785,9.6,9.591a.873.873,0,1,1-1.205,1.234q-4.823-4.812-9.637-9.632a.792.792,0,0,1-.226-1.036A3.36,3.36,0,0,1,1548.738,373.276Z" transform="translate(3248.518 -476.547)" fill="#ffd8b3"/>
        <g id="Group_12643" data-name="Group 12643">
          <path id="Path_2222" data-name="Path 2222" d="M1471.219,492.065c-1.339,1.345-2.743,2.772-4.168,4.178a.8.8,0,0,1-1.195,0q-1.252-1.2-2.455-2.45a.845.845,0,0,1,.053-1.285c1.382-1.4,2.777-2.781,4.153-4.156Zm-2.613-.208c-.156-.2-.29-.54-.521-.633a1.069,1.069,0,0,0-.9.059,9.985,9.985,0,0,0-1.429,1.415.761.761,0,0,0,.064,1.055.75.75,0,0,0,1.088.141,17.3,17.3,0,0,0,1.473-1.456A2.008,2.008,0,0,0,1468.606,491.856Z" transform="translate(3323.492 -578.316)" fill="#ffd8b3"/>
          <path id="Path_2226" data-name="Path 2226" d="M1487.292,513.282a2.008,2.008,0,0,1-.225.58,17.311,17.311,0,0,1-1.473,1.456.75.75,0,0,1-1.087-.141.761.761,0,0,1-.064-1.055,9.981,9.981,0,0,1,1.43-1.415,1.069,1.069,0,0,1,.9-.059C1487,512.741,1487.136,513.079,1487.292,513.282Z" transform="translate(3304.806 -599.741)" fill="#ffd8b3"/>
        </g>
      </g>
    </g>
  </g>
</svg>
