<svg xmlns="http://www.w3.org/2000/svg" width="46" height="46" viewBox="0 0 46 46">
  <g id="Group_20884" data-name="Group 20884" transform="translate(-0.412)">
    <g id="Rectangle_3" data-name="Rectangle 3" transform="translate(0.412)" fill="#fff" stroke="#e0e0e0" stroke-width="1">
      <rect width="46" height="46" rx="23" stroke="none"/>
      <rect x="0.5" y="0.5" width="45" height="45" rx="22.5" fill="none"/>
    </g>
    <path id="Path_46698" data-name="Path 46698" d="M18.243,8.922,4.484,0,3.208,3.939l-1.5-.5L0,10.016l22.359.272ZM4.983,1.407,14.027,7.27l-9.939-3.1ZM1.166,9.122,2.342,4.606l14.182,4.7Z" transform="translate(10.95 20.513) rotate(-13)" fill="#dd272d"/>
    <path id="Path_46698-2" data-name="Path 46698" d="M9.608,140.751H32v14.517H10.264l-.656-.82Z" transform="translate(2.339 -124.949)" fill="#ffd8b3"/>
    <path id="wallet:3" d="M26.7,146.092a1.161,1.161,0,1,0,1.161,1.161A1.159,1.159,0,0,0,26.7,146.092ZM10.131,139.36a1.318,1.318,0,0,0-.164.007,1.019,1.019,0,0,0-.138.026l10.727-.02,9.343-.013ZM26.7,146.092a1.161,1.161,0,1,0,1.161,1.161A1.159,1.159,0,0,0,26.7,146.092Zm0,0a1.161,1.161,0,1,0,1.161,1.161A1.159,1.159,0,0,0,26.7,146.092Zm0,0a1.161,1.161,0,1,0,1.161,1.161A1.159,1.159,0,0,0,26.7,146.092Zm5.662,7.689V141.145c0-1.05-.361-1.64-1.083-1.752a.929.929,0,0,1-.131-.026c-.052,0-.112-.007-.171-.007H10.131a1.318,1.318,0,0,0-.164.007,1.019,1.019,0,0,0-.138.026c-.715.118-1.076.709-1.076,1.752v12.636a1.674,1.674,0,0,0-.007.361.319.319,0,0,0,.007.079.154.154,0,0,0,.013.052.931.931,0,0,0,.033.144,1.8,1.8,0,0,0,.1.262c.039.072.079.138.118.2a1.417,1.417,0,0,0,.177.217c.046.046.092.085.144.131.033.026.072.052.112.079a.31.31,0,0,0,.079.046,1.062,1.062,0,0,0,.118.066.205.205,0,0,0,.066.033.831.831,0,0,0,.118.039,1.082,1.082,0,0,0,.3.072,1.6,1.6,0,0,0,.433,0H30.548a1.555,1.555,0,0,0,.919-.144,1.14,1.14,0,0,0,.125-.066c.02-.013.046-.026.072-.046a.594.594,0,0,0,.1-.072,1.578,1.578,0,0,0,.584-1.017,1.434,1.434,0,0,0,.02-.236C32.372,153.919,32.366,153.847,32.359,153.781Zm-1.083-4.8H26.566a1.679,1.679,0,0,1-1.194-.505,1.731,1.731,0,0,1,1.194-2.946h4.711Zm0-4.534H26.566a2.812,2.812,0,0,0-1.962,4.783,2.734,2.734,0,0,0,1.962.82h4.711v3.733c0,.466,0,.7-.728.7H10.557c-.728,0-.728-.236-.728-.7V140.725a.292.292,0,0,1,.079-.19c.007-.007.007-.013.013-.013a.32.32,0,0,1,.217-.085H30.975a.319.319,0,0,1,.079.007.177.177,0,0,1,.164.125,1.711,1.711,0,0,1,.059.577Zm-5.741,2.808a1.161,1.161,0,1,0,1.161-1.161A1.159,1.159,0,0,0,25.536,147.253Zm1.161-1.161a1.161,1.161,0,1,0,1.161,1.161A1.159,1.159,0,0,0,26.7,146.092Zm0,0a1.161,1.161,0,1,0,1.161,1.161A1.159,1.159,0,0,0,26.7,146.092Z" transform="translate(2.638 -124.471)" fill="#dd272d"/>
  </g>
</svg>
