<svg xmlns="http://www.w3.org/2000/svg" width="46" height="46" viewBox="0 0 46 46">
  <g id="Group_20885" data-name="Group 20885" transform="translate(0.246)">
    <g id="Group_12909" data-name="Group 12909">
      <g id="Rectangle_3" data-name="Rectangle 3" transform="translate(-0.246)" fill="#fff" stroke="#e0e0e0" stroke-width="1">
        <rect width="46" height="46" rx="23" stroke="none"/>
        <rect x="0.5" y="0.5" width="45" height="45" rx="22.5" fill="none"/>
      </g>
      <g id="Group_12908" data-name="Group 12908" transform="translate(13.911 13.911)">
        <g id="Ellipse_58" data-name="Ellipse 58" transform="translate(0.843 1.089)" fill="#ffd8b3" stroke="#dd272d" stroke-width="1.3">
          <circle cx="7.5" cy="7.5" r="7.5" stroke="none"/>
          <circle cx="7.5" cy="7.5" r="6.85" fill="none"/>
        </g>
        <g id="Group_2219" data-name="Group 2219" transform="translate(12.972 12.916)">
          <path id="Path_2055" data-name="Path 2055" d="M356.219,355.279l-3.987-4.027a.69.69,0,0,0-.983,0,.707.707,0,0,0,0,.993l3.986,4.028a.69.69,0,0,0,.983,0A.707.707,0,0,0,356.219,355.279Z" transform="translate(-351.046 -351.046)" fill="#dd272d"/>
        </g>
      </g>
    </g>
  </g>
</svg>
