<svg id="tik-tok" xmlns="http://www.w3.org/2000/svg" width="17.369" height="19.672" viewBox="0 0 17.369 19.672">
  <g id="Group_2349" data-name="Group 2349" transform="translate(2.276 0.887)">
    <path id="Path_2170" data-name="Path 2170" d="M112.1,211.945a2.769,2.769,0,0,0-1.439,5.158,2.726,2.726,0,0,1-.444-1.454,2.791,2.791,0,0,1,2.809-2.816,2.9,2.9,0,0,1,.883.139v-3.106a6.11,6.11,0,0,0-.883-.066h-.042v2.284A2.9,2.9,0,0,0,112.1,211.945Z" transform="translate(-108.501 -202.632)" fill="#f00044"/>
    <path id="Path_2171" data-name="Path 2171" d="M337.026,24H336.2a4.744,4.744,0,0,0,1.794,2.859A4.779,4.779,0,0,1,337.026,24Z" transform="translate(-326.655 -24)" fill="#f00044"/>
    <path id="Path_2172" data-name="Path 2172" d="M103.892,144.385a4.8,4.8,0,0,1-.887-.085v2.226a7.653,7.653,0,0,1-3.025-.613,7.9,7.9,0,0,1-1.721-1l.015,6.863a5.742,5.742,0,0,1-1.721,4.082,5.852,5.852,0,0,1-3.272,1.636,6.11,6.11,0,0,1-.883.066,5.86,5.86,0,0,1-3.6-1.219,5.223,5.223,0,0,0,.374.405,5.879,5.879,0,0,0,4.155,1.7,6.105,6.105,0,0,0,.883-.066,5.852,5.852,0,0,0,3.272-1.636A5.742,5.742,0,0,0,99.2,152.66l-.058-6.863a7.578,7.578,0,0,0,1.721,1,7.749,7.749,0,0,0,3.025.613" transform="translate(-88.8 -139.659)" fill="#f00044"/>
  </g>
  <path id="Path_2173" data-name="Path 2173" d="M32.438,189.4a5.871,5.871,0,0,1,4.12-1.709v-.822a6.105,6.105,0,0,0-.883-.066,5.866,5.866,0,0,0-4.163,1.709,5.766,5.766,0,0,0,.008,8.21,5.872,5.872,0,0,0,.552.482,5.746,5.746,0,0,1-1.35-3.7A5.817,5.817,0,0,1,32.438,189.4Z" transform="translate(-29.8 -179.632)" fill="#08fff9"/>
  <path id="Path_2174" data-name="Path 2174" d="M385.663,99.882v-.826h-.008A4.708,4.708,0,0,1,382.8,98.1,4.713,4.713,0,0,0,385.663,99.882Z" transform="translate(-369.181 -94.354)" fill="#08fff9"/>
  <path id="Path_2175" data-name="Path 2175" d="M147.007,17.636a2.9,2.9,0,0,0,1.042-.135,2.78,2.78,0,0,0,1.925-2.635l0-4.591V1.887h2.207A4.808,4.808,0,0,1,152.092,1h-3.04V9.383l0,4.591a2.78,2.78,0,0,1-1.925,2.635,2.738,2.738,0,0,1-1.042.135,2.83,2.83,0,0,1-1.281-.39,2.814,2.814,0,0,0,2.207,1.281Z" transform="translate(-140.363 -1)" fill="#08fff9"/>
  <path id="Path_2176" data-name="Path 2176" d="M59.633,41.832A5.852,5.852,0,0,0,62.9,40.2a5.742,5.742,0,0,0,1.721-4.082l-.015-6.863a7.579,7.579,0,0,0,1.721,1,7.749,7.749,0,0,0,3.025.613V28.641a4.713,4.713,0,0,1-2.863-1.782A4.726,4.726,0,0,1,64.7,24H62.488v8.383l0,4.591a2.78,2.78,0,0,1-1.925,2.635,2.738,2.738,0,0,1-1.042.135,2.815,2.815,0,0,1-2.207-1.277,2.769,2.769,0,0,1,1.439-5.158,2.9,2.9,0,0,1,.883.139V31.164a5.871,5.871,0,0,0-4.12,1.709,5.779,5.779,0,0,0-1.713,4.1,5.7,5.7,0,0,0,1.35,3.7,5.868,5.868,0,0,0,3.6,1.219A5.6,5.6,0,0,0,59.633,41.832Z" transform="translate(-52.874 -23.113)"/>
</svg>
