<svg id="youtube_1_" data-name="youtube (1)" xmlns="http://www.w3.org/2000/svg" width="25.771" height="18.044" viewBox="0 0 25.771 18.044">
  <path id="Path_2057" data-name="Path 2057" d="M25.24,2.824A3.229,3.229,0,0,0,22.969.552C20.952,0,12.885,0,12.885,0S4.819,0,2.8.531A3.3,3.3,0,0,0,.531,2.824,34.022,34.022,0,0,0,0,9.022a33.9,33.9,0,0,0,.531,6.2A3.229,3.229,0,0,0,2.8,17.492c2.038.552,10.083.552,10.083.552s8.067,0,10.083-.531a3.229,3.229,0,0,0,2.272-2.271,34.023,34.023,0,0,0,.531-6.2,32.293,32.293,0,0,0-.531-6.22Zm0,0" transform="translate(0 0)" fill="red"/>
  <path id="Path_2058" data-name="Path 2058" d="M204.969,110.211l6.708-3.863-6.708-3.864Zm0,0" transform="translate(-194.652 -97.326)" fill="#fff"/>
</svg>
